<svg width="24" height="24" viewBox="0 0 24 24" fill="none" xmlns="http://www.w3.org/2000/svg">
<g clip-path="url(#clip0_2554_8)">
<path d="M5.52285 1.74503L4.45585 0.0560303C2.7298 1.06867 1.22116 2.41282 0.0168457 4.01103L1.67985 5.12003C2.7275 3.75425 4.03321 2.60754 5.52285 1.74503V1.74503Z" fill="#5161FF"/>
<path d="M22.3202 5.12003L23.9832 4.01103C22.7788 2.41282 21.2702 1.06867 19.5442 0.0560303L18.4772 1.74503C19.9668 2.60754 21.2725 3.75425 22.3202 5.12003V5.12003Z" fill="#5161FF"/>
<path d="M13.0001 2.051V0H11.0001V2.051C8.95442 2.2338 7.00103 2.98687 5.36201 4.2246C3.72299 5.46232 2.4641 7.13506 1.72844 9.05265C0.992777 10.9702 0.809861 13.0558 1.20048 15.0721C1.59111 17.0885 2.5396 18.9548 3.93813 20.459L2.01013 22.577L3.49013 23.923L5.42413 21.8C7.31838 23.2297 9.62693 24.0031 12.0001 24.0031C14.3733 24.0031 16.6819 23.2297 18.5761 21.8L20.5101 23.926L21.9901 22.58L20.0621 20.462C21.4616 18.9579 22.4108 17.0913 22.8019 15.0745C23.1931 13.0577 23.0104 10.9716 22.2746 9.05344C21.5389 7.1353 20.2796 5.46213 18.64 4.22423C17.0005 2.98632 15.0464 2.23337 13.0001 2.051V2.051ZM14.2931 15.707L11.0001 12.414V7H13.0001V11.586L15.7071 14.293L14.2931 15.707Z" fill="#5161FF"/>
</g>
<defs>
<clipPath id="clip0_2554_8">
<rect width="24" height="24" fill="white"/>
</clipPath>
</defs>
</svg>
