<svg width="22" height="22" viewBox="0 0 22 22" fill="none" xmlns="http://www.w3.org/2000/svg">
<g clip-path="url(#clip0_257_173)">
<path d="M5.95833 16.042H0V19.2503C0 19.9797 0.289731 20.6791 0.805456 21.1949C1.32118 21.7106 2.02065 22.0003 2.75 22.0003H5.95833V16.042Z" fill="white"/>
<path d="M22.0003 16.042H16.042V22.0003H19.2503C19.9797 22.0003 20.6791 21.7106 21.1949 21.1949C21.7106 20.6791 22.0003 19.9797 22.0003 19.2503V16.042Z" fill="white"/>
<path d="M5.95833 8.02051H0V13.9788H5.95833V8.02051Z" fill="white"/>
<path d="M22.0003 8.02051H16.042V13.9788H22.0003V8.02051Z" fill="white"/>
<path d="M5.95833 0H2.75C2.02065 0 1.32118 0.289731 0.805456 0.805456C0.289731 1.32118 0 2.02065 0 2.75L0 5.95833H5.95833V0Z" fill="white"/>
<path d="M13.9788 16.042H8.02051V22.0003H13.9788V16.042Z" fill="white"/>
<path d="M13.9788 8.02051H8.02051V13.9788H13.9788V8.02051Z" fill="white"/>
<path d="M13.9788 0H8.02051V5.95833H13.9788V0Z" fill="white"/>
<path d="M19.2503 0H16.042V5.95833H22.0003V2.75C22.0003 2.02065 21.7106 1.32118 21.1949 0.805456C20.6791 0.289731 19.9797 0 19.2503 0V0Z" fill="white"/>
</g>
<defs>
<clipPath id="clip0_257_173">
<rect width="22" height="22" fill="white"/>
</clipPath>
</defs>
</svg>
