<svg width="22" height="22" viewBox="0 0 22 22" fill="none" xmlns="http://www.w3.org/2000/svg">
<g clip-path="url(#clip0_257_172)">
<path d="M13.75 0H2.75C2.02065 0 1.32118 0.289731 0.805456 0.805456C0.289731 1.32118 0 2.02065 0 2.75L0 10.0833H13.75V0Z" fill="white"/>
<path d="M19.2497 0H15.583V10.0833H21.9996V2.75C21.9996 2.02065 21.7099 1.32118 21.1942 0.805456C20.6785 0.289731 19.979 0 19.2497 0V0Z" fill="white"/>
<path d="M6.41667 11.917H0V19.2503C0 19.9797 0.289731 20.6791 0.805456 21.1949C1.32118 21.7106 2.02065 22.0003 2.75 22.0003H6.41667V11.917Z" fill="white"/>
<path d="M22 11.917H8.25V22.0003H19.25C19.9793 22.0003 20.6788 21.7106 21.1945 21.1949C21.7103 20.6791 22 19.9797 22 19.2503V11.917Z" fill="white"/>
</g>
<defs>
<clipPath id="clip0_257_172">
<rect width="22" height="22" fill="white"/>
</clipPath>
</defs>
</svg>
