<svg width="24" height="24" viewBox="0 0 24 24" fill="none" xmlns="http://www.w3.org/2000/svg">
<g clip-path="url(#clip0_2551_13)">
<path d="M23.121 7.1221L20.707 4.7071L22.707 2.7071L21.293 1.2931L19.293 3.2931L16.879 0.879103C16.6004 0.600474 16.2696 0.37945 15.9056 0.228654C15.5416 0.0778583 15.1515 0.000244141 14.7575 0.000244141C14.3635 0.000244141 13.9733 0.0778583 13.6093 0.228654C13.2453 0.37945 12.9146 0.600474 12.636 0.879103L9.80797 3.7071L14.343 8.2431L8.24297 14.3431L3.70697 9.8081L0.87897 12.6361C0.316557 13.1987 0.000610352 13.9616 0.000610352 14.7571C0.000610352 15.5526 0.316557 16.3155 0.87897 16.8781L3.29297 19.2931L1.29297 21.2931L2.70697 22.7071L4.70697 20.7071L7.12097 23.1211C7.39955 23.3997 7.73029 23.6208 8.0943 23.7716C8.45831 23.9223 8.84846 24 9.24247 24C9.63648 24 10.0266 23.9223 10.3906 23.7716C10.7546 23.6208 11.0854 23.3997 11.364 23.1211L14.192 20.2931L9.65697 15.7571L15.757 9.6571L20.292 14.1921L23.12 11.3641C23.6824 10.8015 23.9983 10.0386 23.9983 9.2431C23.9983 8.44761 23.6824 7.68469 23.12 7.1221H23.121Z" fill="#5161FF"/>
</g>
<defs>
<clipPath id="clip0_2551_13">
<rect width="24" height="24" fill="white"/>
</clipPath>
</defs>
</svg>
