<?xml version="1.0" encoding="UTF-8"?>
<svg id="Capa_2" data-name="Capa 2" xmlns="http://www.w3.org/2000/svg" viewBox="0 0 367.81 108.96">
  <defs>
    <style>
      .cls-1 {
        letter-spacing: -.03em;
      }

      .cls-2, .cls-3 {
        fill: #fff;
      }

      .cls-4 {
        letter-spacing: -.04em;
      }

      .cls-3 {
        font-family: AestheticRomance-Regular, 'Aesthetic Romance';
        font-size: 100.74px;
      }
    </style>
  </defs>
  <g id="Capa_1-2" data-name="Capa 1">
    <text class="cls-3" transform="translate(129.82 83.19)"><tspan x="0" y="0">P</tspan><tspan class="cls-1" x="42.01" y="0">h</tspan><tspan x="81.9" y="0">y</tspan><tspan class="cls-4" x="120.49" y="0">r</tspan><tspan x="151.32" y="0">al</tspan></text>
    <path class="cls-2" d="M100.06,22.62c.17,24.78-7.05,46.87-22.26,63.77-16.02,18.47-50.74,30.4-70.22,14.43-8.78-7.68-10.12-23.42-3.02-32.02,12.76-15.95,38.26-16.28,52.77-29.54,7.07-6.6,5.71-18.54-2.75-24.05-13.44-8.89-33.72-4.95-49.61,0C27.2,.46,81.6-11.57,86.6,23.72c-1.56,22.19-31.79,19.5-47,27.76-36.37,17.33-8.22,56.97,25.7,38.2,23.42-12.53,33.51-40.01,33.39-67.06h1.37Z"/>
  </g>
</svg>