<svg width="22" height="22" viewBox="0 0 22 22" fill="none" xmlns="http://www.w3.org/2000/svg">
<g clip-path="url(#clip0_257_170)">
<path d="M2.75 20.1447C2.50688 20.1447 2.27373 20.0481 2.10182 19.8762C1.92991 19.7043 1.83333 19.4711 1.83333 19.228V0H0V19.228C0 19.9573 0.289731 20.6568 0.805456 21.1725C1.32118 21.6883 2.02065 21.978 2.75 21.978H22V20.1447H2.75Z" fill="white"/>
<path d="M6.41634 11H4.58301V17.4167H6.41634V11Z" fill="white"/>
<path d="M11.0003 9.1665H9.16699V17.4165H11.0003V9.1665Z" fill="white"/>
<path d="M15.5833 11.9165H13.75V17.4165H15.5833V11.9165Z" fill="white"/>
<path d="M20.1664 8.25H18.333V17.4167H20.1664V8.25Z" fill="white"/>
<path d="M10.083 4.04614L14.6663 8.62947L21.7311 1.56472L20.4349 0.268555L14.6663 6.03714L10.083 1.4538L4.85156 6.68522L6.14773 7.98139L10.083 4.04614Z" fill="white"/>
</g>
<defs>
<clipPath id="clip0_257_170">
<rect width="22" height="22" fill="white"/>
</clipPath>
</defs>
</svg>
