<svg width="128" height="49" viewBox="0 0 128 49" fill="none" xmlns="http://www.w3.org/2000/svg">
<path d="M6.86625 25.992V37H0.46625V0.519997H8.27425C10.7916 0.519997 12.9889 0.882664 14.8663 1.608C16.7436 2.33333 18.3009 3.29333 19.5383 4.488C20.8183 5.68267 21.7569 7.048 22.3543 8.584C22.9943 10.0773 23.3143 11.6347 23.3143 13.256C23.3143 14.8347 22.9943 16.392 22.3543 17.928C21.7569 19.464 20.8183 20.8293 19.5383 22.024C18.3009 23.2187 16.7436 24.1787 14.8663 24.904C12.9889 25.6293 10.7916 25.992 8.27425 25.992H6.86625ZM7.44225 25.608C9.02092 25.608 10.3863 25.2667 11.5383 24.584C12.7329 23.8587 13.7143 22.92 14.4823 21.768C15.2929 20.5733 15.8903 19.2507 16.2743 17.8C16.6583 16.3067 16.8503 14.792 16.8503 13.256C16.8503 11.72 16.6583 10.2053 16.2743 8.712C15.8903 7.21866 15.2929 5.896 14.4823 4.744C13.7143 3.592 12.7329 2.67466 11.5383 1.992C10.3863 1.26667 9.02092 0.903999 7.44225 0.903999H6.86625V25.608H7.44225ZM42.8978 37V19.144C42.8978 17.9067 42.5778 16.9253 41.9378 16.2C41.2978 15.432 40.4444 15.048 39.3778 15.048C38.2684 15.048 37.1804 15.432 36.1138 16.2C35.0898 16.968 34.2364 18.0133 33.5538 19.336V37H27.1538V0.519997H30.3538C32.4871 0.519997 33.5538 1.58666 33.5538 3.72V18.76C34.4498 16.6693 35.6231 15.0907 37.0738 14.024C38.5671 12.9147 40.2738 12.36 42.1938 12.36C44.3698 12.36 46.0978 13.0427 47.3778 14.408C48.6578 15.7307 49.2978 17.5013 49.2978 19.72V37H42.8978ZM51.1863 48.968L62.0663 37.192L51.1863 12.68H58.2903L65.3943 29.448L70.1943 12.68H73.1383L58.6743 46.024C57.8636 47.9867 56.3703 48.968 54.1943 48.968H51.1863ZM83.3663 17.928C83.9636 16.2213 84.9663 14.8773 86.3743 13.896C87.7823 12.872 89.2756 12.36 90.8542 12.36C92.3476 12.36 93.4356 12.7653 94.1183 13.576C94.8436 14.3867 95.2063 15.2827 95.2063 16.264C95.2063 17.16 94.9076 17.992 94.3103 18.76C93.7129 19.4853 92.8169 19.848 91.6223 19.848C90.5129 19.848 89.6596 19.528 89.0623 18.888C88.4649 18.2053 88.1663 17.4587 88.1663 16.648C88.1663 15.6667 88.5503 14.856 89.3183 14.216C87.6543 13.832 86.2463 14.3227 85.0943 15.688C83.9423 17.0533 83.3663 18.9733 83.3663 21.448V37H76.9663V12.68H80.1663C82.2996 12.68 83.3663 13.4053 83.3663 14.856V17.928ZM109.649 37V30.088C109.222 32.2213 108.219 33.9707 106.641 35.336C105.105 36.6587 103.291 37.32 101.201 37.32C99.4088 37.32 97.9581 36.808 96.8488 35.784C95.7821 34.76 95.2488 33.352 95.2488 31.56C95.2488 30.1947 95.5901 28.9573 96.2728 27.848C96.9554 26.696 97.9154 25.7147 99.1528 24.904C100.433 24.0933 101.947 23.4747 103.697 23.048C105.489 22.6213 107.473 22.408 109.649 22.408V20.552C109.649 18.504 109.179 16.9893 108.241 16.008C107.302 14.984 105.787 14.472 103.697 14.472C101.691 14.472 99.2594 14.8773 96.4008 15.688C98.3208 14.5787 100.219 13.7467 102.097 13.192C103.974 12.6373 105.723 12.36 107.345 12.36C109.905 12.36 111.995 13 113.617 14.28C115.238 15.5173 116.049 17.3307 116.049 19.72V37H109.649ZM109.649 22.792C108.113 22.792 106.811 23.0053 105.745 23.432C104.678 23.816 103.803 24.328 103.121 24.968C102.438 25.5653 101.926 26.2693 101.585 27.08C101.286 27.848 101.137 28.616 101.137 29.384C101.137 30.5787 101.478 31.624 102.161 32.52C102.843 33.416 103.782 33.864 104.977 33.864C106.342 33.864 107.451 33.288 108.305 32.136C109.201 30.984 109.649 29.512 109.649 27.72V22.792ZM127.554 37H121.154V0.519997H124.354C126.487 0.519997 127.554 1.58666 127.554 3.72V37Z" fill="white"/>
</svg>
