<svg width="16" height="20" viewBox="0 0 16 20" fill="none" xmlns="http://www.w3.org/2000/svg">
<path d="M16 3.89589C16 6.42821 15.6707 8.64629 15.0105 10.552C14.352 12.4595 13.4936 14.0528 12.4386 15.3336C11.3836 16.6163 10.1894 17.5848 8.85594 18.2427C7.52247 18.9006 6.19719 19.2295 4.87847 19.2295C3.23702 19.2295 2.01495 18.794 1.20897 17.9229C0.40299 17.0519 0 15.9915 0 14.7419C0 13.6907 0.242449 12.8362 0.725709 12.1783C1.20897 11.5204 1.81673 10.9636 2.54899 10.5024C3.28125 10.0429 4.07904 9.63864 4.94399 9.295C5.80731 8.94951 6.60674 8.58933 7.339 8.21076C8.07126 7.83404 8.67902 7.38932 9.16228 6.88028C9.64554 6.37124 9.88799 5.7207 9.88799 4.93234C9.88799 3.97858 9.49974 3.19022 8.72325 2.5654C7.94676 1.94059 6.85574 1.62819 5.44855 1.62819C4.6868 1.62819 3.96109 1.70169 3.27306 1.85055C2.58503 1.99756 1.75612 2.23646 0.789598 2.5654C2.08211 1.70904 3.33367 1.06769 4.55083 0.641351C5.76636 0.215009 7.01955 0 8.30879 0C10.2123 0 11.6113 0.411641 12.5058 1.23308C13.3986 2.05453 13.8458 3.00829 13.8458 4.09252C13.8458 4.98012 13.5968 5.67109 13.0988 6.16359C12.6008 6.65608 11.9701 7.05119 11.2084 7.34705C10.4466 7.64292 9.63243 7.9149 8.76912 8.16115C7.90417 8.4074 7.09163 8.71245 6.32989 9.07264C5.56814 9.43466 4.93744 9.91062 4.43944 10.5024C3.94144 11.0941 3.69243 11.9155 3.69243 12.9685C3.69243 13.6595 3.80219 14.242 4.02171 14.718C4.24122 15.194 4.53445 15.5891 4.9014 15.9015C5.26671 16.2139 5.67789 16.4362 6.13167 16.5667C6.58544 16.699 7.0474 16.7633 7.51592 16.7633C8.48244 16.7633 9.45715 16.484 10.4384 15.9254C11.4197 15.3667 12.3059 14.5453 13.0972 13.4592C13.8884 12.375 14.5322 11.0279 15.0302 9.41628C15.5282 7.80647 15.6756 5.94858 15.6756 3.87751L15.9967 3.89405L16 3.89589Z" fill="white"/>
</svg>
