<svg width="16" height="16" viewBox="0 0 16 16" fill="none" xmlns="http://www.w3.org/2000/svg">
<mask id="path-1-inside-1_577_1946" fill="white">
<path d="M12.9813 6.6809C12.9586 7.98447 12.5328 9.33946 11.5887 10.5109C11.455 10.6765 11.4679 10.769 11.6124 10.9135C12.6871 11.9831 13.7547 13.0599 14.8222 14.1367C15.1595 14.4771 15.4917 14.8232 15.8239 15.1693C16.0497 15.4043 16.0574 15.6434 15.8527 15.8455C15.6532 16.0424 15.3976 16.0342 15.1734 15.8121C13.8781 14.5275 12.5848 13.2409 11.2894 11.9559C11.1619 11.8294 11.0184 11.7183 10.8981 11.5856C10.7742 11.4488 10.6785 11.4509 10.5346 11.5671C9.25927 12.5956 7.78086 13.0671 6.16361 12.9689C3.85987 12.829 2.06264 11.7527 0.889684 9.75444C-0.816526 6.84802 6.86646e-05 3.15175 2.75068 1.18277C3.71845 0.490103 4.81119 0.112145 6.00009 0.031411C7.85799 -0.0940608 9.48964 0.444337 10.8786 1.70214C12.2747 2.96611 12.9746 4.68158 12.9813 6.6809ZM6.521 0.964736C3.49219 0.92874 1.02338 3.46234 0.959105 6.34871C0.890712 9.43768 3.37084 11.9965 6.46392 12.0366C9.4845 12.0757 12.0382 9.53075 12.0397 6.5472C12.0412 3.46183 9.57243 0.964736 6.521 0.964736Z"/>
</mask>
<path d="M12.9813 6.6809L13.9811 6.69825L13.9813 6.68791L13.9812 6.67756L12.9813 6.6809ZM11.5887 10.5109L12.3668 11.1391L12.3673 11.1384L11.5887 10.5109ZM11.6124 10.9135L10.9053 11.6206L10.907 11.6223L11.6124 10.9135ZM14.8222 14.1367L15.5325 13.4328L15.5323 13.4327L14.8222 14.1367ZM15.8239 15.1693L15.1025 15.8618L15.1027 15.862L15.8239 15.1693ZM15.8527 15.8455L16.5552 16.5572L16.5553 16.557L15.8527 15.8455ZM15.1734 15.8121L14.4693 16.5221L14.4696 16.5224L15.1734 15.8121ZM11.2894 11.9559L11.9937 11.2459L11.9937 11.2459L11.2894 11.9559ZM10.8981 11.5856L10.157 12.257L10.1574 12.2574L10.8981 11.5856ZM10.5346 11.5671L11.1623 12.3455L11.1626 12.3452L10.5346 11.5671ZM6.16361 12.9689L6.22423 11.9707L6.22421 11.9707L6.16361 12.9689ZM0.889684 9.75444L1.75209 9.24823L1.75206 9.24818L0.889684 9.75444ZM2.75068 1.18277L2.16866 0.36959L2.1686 0.369631L2.75068 1.18277ZM6.00009 0.031411L5.93271 -0.966316L5.93234 -0.966291L6.00009 0.031411ZM10.8786 1.70214L10.2073 2.44337L10.2074 2.44346L10.8786 1.70214ZM6.521 0.964736L6.50912 1.96474H6.521V0.964736ZM0.959105 6.34871L-0.0406475 6.32644L-0.0406503 6.32657L0.959105 6.34871ZM6.46392 12.0366L6.45095 13.0365L6.45098 13.0365L6.46392 12.0366ZM12.0397 6.5472L13.0397 6.54772L13.0397 6.5477L12.0397 6.5472ZM11.9814 6.66354C11.9624 7.75991 11.6055 8.8965 10.8101 9.88335L12.3673 11.1384C13.4602 9.78243 13.9549 8.20902 13.9811 6.69825L11.9814 6.66354ZM10.8107 9.88265C10.7068 10.0113 10.4651 10.3347 10.4989 10.7936C10.5318 11.2391 10.8062 11.5215 10.9053 11.6206L12.3195 10.2064C12.2741 10.161 12.4698 10.3249 12.4935 10.6466C12.5058 10.8136 12.4659 10.9482 12.4282 11.0323C12.4105 11.0719 12.3935 11.1001 12.3832 11.1158C12.3779 11.124 12.3736 11.13 12.3709 11.1336C12.3696 11.1355 12.3685 11.1369 12.3678 11.1377C12.3671 11.1386 12.3668 11.1391 12.3668 11.1391L10.8107 9.88265ZM10.907 11.6223C11.9789 12.6891 13.0441 13.7636 14.112 14.8407L15.5323 13.4327C14.4652 12.3563 13.3953 11.2771 12.3178 10.2047L10.907 11.6223ZM14.1119 14.8406C14.4427 15.1744 14.7694 15.5147 15.1025 15.8618L16.5453 14.4768C16.2141 14.1317 15.8764 13.7798 15.5325 13.4328L14.1119 14.8406ZM15.1027 15.862C15.1027 15.862 15.1015 15.8607 15.0993 15.8581C15.0971 15.8555 15.0939 15.8515 15.0898 15.846C15.0819 15.8351 15.0702 15.8173 15.0578 15.7924C15.0322 15.7412 15.0046 15.6616 15.0005 15.5596C14.9913 15.3282 15.1035 15.1799 15.1501 15.1339L16.5553 16.557C16.8065 16.309 17.0173 15.94 16.9989 15.4799C16.9814 15.0418 16.7628 14.7032 16.5451 14.4765L15.1027 15.862ZM15.1502 15.1338C15.2137 15.0711 15.3601 14.9777 15.5668 14.9869C15.7596 14.9955 15.8624 15.087 15.8773 15.1017L14.4696 16.5224C14.7086 16.7593 15.0513 16.9659 15.4778 16.9849C15.9183 17.0046 16.2922 16.8168 16.5552 16.5572L15.1502 15.1338ZM15.8776 15.102C14.5803 13.8156 13.2924 12.5343 11.9937 11.2459L10.5852 12.6658C11.8772 13.9476 13.1758 15.2394 14.4693 16.5221L15.8776 15.102ZM11.9937 11.2459C11.9075 11.1605 11.8133 11.0776 11.76 11.0298C11.6961 10.9722 11.6625 10.9399 11.6388 10.9138L10.1574 12.2574C10.254 12.364 10.3523 12.4535 10.4221 12.5163C10.5026 12.5888 10.5438 12.6248 10.5852 12.6658L11.9937 11.2459ZM11.6392 10.9142C11.512 10.7738 11.2208 10.4986 10.7597 10.4821C10.3271 10.4666 10.0245 10.6937 9.90648 10.7889L11.1626 12.3452C11.1607 12.3468 11.1512 12.3544 11.1348 12.3651C11.1186 12.3758 11.0914 12.3923 11.0542 12.4095C10.9776 12.4449 10.8504 12.4867 10.688 12.4808C10.3417 12.4684 10.1603 12.2606 10.157 12.257L11.6392 10.9142ZM9.9068 10.7887C8.82451 11.6615 7.59131 12.0537 6.22423 11.9707L6.10299 13.967C7.97041 14.0805 9.69402 13.5296 11.1623 12.3455L9.9068 10.7887ZM6.22421 11.9707C4.24554 11.8506 2.75266 10.9528 1.75209 9.24823L0.0272764 10.2607C1.37262 12.5526 3.4742 13.8074 6.10301 13.967L6.22421 11.9707ZM1.75206 9.24818C0.312796 6.79648 0.994596 3.66964 3.33275 1.99591L2.1686 0.369631C-0.994459 2.63386 -1.94585 6.89957 0.0273027 10.2607L1.75206 9.24818ZM3.33269 1.99595C4.14296 1.41602 5.05597 1.09783 6.06784 1.02911L5.93234 -0.966291C4.56641 -0.873536 3.29395 -0.435813 2.16866 0.36959L3.33269 1.99595ZM6.06747 1.02914C7.66489 0.921258 9.02713 1.3746 10.2073 2.44337L11.5498 0.960909C9.95215 -0.485929 8.0511 -1.10938 5.93271 -0.966316L6.06747 1.02914ZM10.2074 2.44346C11.3711 3.497 11.9754 4.93227 11.9813 6.68424L13.9812 6.67756C13.9737 4.43089 13.1783 2.43523 11.5497 0.960817L10.2074 2.44346ZM6.53288 -0.0351937C2.93725 -0.0779261 0.0354181 2.91079 -0.0406475 6.32644L1.95886 6.37097C2.01135 4.01389 4.04713 1.93541 6.50912 1.96467L6.53288 -0.0351937ZM-0.0406503 6.32657C-0.121407 9.97398 2.80475 12.9892 6.45095 13.0365L6.47689 11.0367C3.93692 11.0037 1.90283 8.90138 1.95886 6.37084L-0.0406503 6.32657ZM6.45098 13.0365C10.0303 13.0828 13.0379 10.0868 13.0397 6.54772L11.0397 6.54668C11.0384 8.97469 8.93874 11.0685 6.47686 11.0367L6.45098 13.0365ZM13.0397 6.5477C13.0415 2.92021 10.1352 -0.0352643 6.521 -0.0352643V1.96474C9.00965 1.96474 11.041 4.00345 11.0397 6.5467L13.0397 6.5477Z" fill="#3D3D3D" mask="url(#path-1-inside-1_577_1946)"/>
</svg>
