<svg width="20" height="24" viewBox="0 0 20 24" fill="none" xmlns="http://www.w3.org/2000/svg">
<g clip-path="url(#clip0_791_841)">
<path d="M17.5213 18.8012C17.9842 18.7484 18.449 18.7057 18.9099 18.6402C19.3895 18.5721 19.7161 18.7043 19.8991 19.0703C20.0915 19.4557 20.0073 19.8198 19.66 20.1511C17.6094 22.1034 15.1581 23.1087 12.3441 23.3017C7.01866 23.6671 1.45609 20.127 0.263822 14C-0.627204 9.42068 0.735384 5.50591 4.40302 2.54495C6.75081 0.648677 9.49002 -0.194258 12.5251 0.0375154C13.1543 0.0856068 13.5244 0.518429 13.3547 1.05679C13.2812 1.28989 13.0481 1.51766 12.829 1.65192C11.6328 2.38464 10.6248 3.31174 9.84269 4.47328C8.54088 6.40628 8.09336 8.54702 8.43869 10.8354C8.96235 14.308 10.8666 16.7406 14.1008 18.1072C15.1862 18.5661 16.3364 18.7678 17.5219 18.8005L17.5213 18.8012Z" fill="#5161FF"/>
</g>
<defs>
<clipPath id="clip0_791_841">
<rect width="20" height="23.3263" fill="white"/>
</clipPath>
</defs>
</svg>
