<svg width="61" height="73" viewBox="0 0 61 73" fill="none" xmlns="http://www.w3.org/2000/svg">
	<path d="M61 14.7898C61 24.4031 59.7447 32.8235 57.2277 40.0579C54.717 47.2993 51.4444 53.3478 47.4223 58.2103C43.4001 63.0797 38.8472 66.7562 33.7633 69.2538C28.6795 71.7513 23.6268 73 18.5992 73C12.3412 73 7.68201 71.3466 4.60922 68.0399C1.53642 64.7331 2.38248e-05 60.7078 2.38248e-05 55.9639C2.38248e-05 51.9735 0.924361 48.7295 2.76679 46.232C4.60922 43.7344 6.92631 41.6206 9.71805 39.8696C12.5098 38.1255 15.5514 36.5907 18.849 35.2862C22.1404 33.9746 25.1882 32.6073 27.98 31.1701C30.7717 29.74 33.0888 28.0517 34.9312 26.1193C36.7736 24.1869 37.698 21.7172 37.698 18.7244C37.698 15.1037 36.2178 12.1109 33.2574 9.73894C30.297 7.367 26.1375 6.18103 20.7726 6.18103C17.8685 6.18103 15.1017 6.46008 12.4786 7.02516C9.85545 7.58327 6.69522 8.49018 3.01036 9.73894C7.93808 6.48799 12.7097 4.05326 17.3501 2.43476C21.9843 0.816254 26.7621 2.72778e-05 31.6773 2.72778e-05C38.9346 2.72778e-05 44.2683 1.56272 47.6783 4.68112C51.0821 7.79953 52.7872 11.4202 52.7872 15.5362C52.7872 18.9058 51.8378 21.5289 49.9392 23.3985C48.0406 25.2682 45.636 26.7681 42.7319 27.8913C39.8277 29.0145 36.7237 30.047 33.4323 30.9818C30.1347 31.9166 27.0369 33.0747 24.1327 34.442C21.2285 35.8163 18.824 37.6232 16.9254 39.8696C15.0267 42.116 14.0774 45.2344 14.0774 49.2318C14.0774 51.8549 14.4959 54.0663 15.3328 55.8732C16.1697 57.6801 17.2876 59.18 18.6866 60.3659C20.0794 61.5519 21.647 62.3961 23.377 62.8914C25.107 63.3937 26.8682 63.6378 28.6545 63.6378C32.3393 63.6378 36.0554 62.5774 39.7965 60.4566C43.5375 58.3358 46.9164 55.2174 49.933 51.0944C52.9495 46.9784 55.404 41.8648 57.3027 35.7466C59.2013 29.6353 59.7634 22.5823 59.7634 14.72L60.9875 14.7828L61 14.7898Z" fill="white" />
</svg>
